<svg width="150" height="150" viewBox="0 0 150 150" fill="none" xmlns="http://www.w3.org/2000/svg">
<circle opacity="0.1" cx="75" cy="75" r="75" fill="#CB2929"/>
<path d="M78.3519 77.0088H75.2465L67.7305 97.2166H70.791L78.3519 77.0088Z" fill="#A52626"/>
<path d="M79.2988 83.1754L89.1999 87.136L79.2988 91.0514V94.1566L92.9805 88.7111V85.5609L79.2988 80.0703V83.1754Z" fill="#A52626"/>
<path d="M66.7853 91.0514L56.884 87.136L66.7853 83.1754V80.0703L53.0586 85.5609V88.7111L66.7853 94.1566V91.0514Z" fill="#A52626"/>
<path d="M47.3594 52.3821C47.3594 59.7678 47.3594 79.7574 47.3594 97.3592C47.3594 100.469 49.8909 103 53.0005 103H97.136C100.245 103 102.777 100.469 102.777 97.3592C102.777 79.7576 102.777 59.7664 102.777 52.3821C102.777 49.2725 100.245 46.7432 97.136 46.7432H53.0005C49.8909 46.7432 47.3594 49.2725 47.3594 52.3821ZM100.527 97.3592C100.527 99.2293 99.0061 100.75 97.136 100.75H53.0005C51.1304 100.75 49.6097 99.2293 49.6097 97.3592V58.1726H100.527V97.3592ZM100.527 52.3821V55.9223H49.6097V52.3821C49.6097 50.5142 51.1304 48.9934 53.0005 48.9934H97.136C99.0061 48.9934 100.527 50.5142 100.527 52.3821Z" fill="#A52626"/>
<path d="M79.172 53.8616H82.0728C82.6947 53.8616 83.1979 53.3584 83.1979 52.7365C83.1979 52.1146 82.6947 51.6113 82.0728 51.6113H79.172C78.5501 51.6113 78.0469 52.1146 78.0469 52.7365C78.0469 53.3584 78.5501 53.8616 79.172 53.8616Z" fill="#A52626"/>
<path d="M85.3517 53.8616H88.2525C88.8744 53.8616 89.3776 53.3584 89.3776 52.7365C89.3776 52.1146 88.8744 51.6113 88.2525 51.6113H85.3517C84.7298 51.6113 84.2266 52.1146 84.2266 52.7365C84.2266 53.3584 84.7298 53.8616 85.3517 53.8616Z" fill="#A52626"/>
<path d="M91.5294 53.8616H94.4302C95.0521 53.8616 95.5553 53.3584 95.5553 52.7365C95.5553 52.1146 95.0521 51.6113 94.4302 51.6113H91.5294C90.9075 51.6113 90.4043 52.1146 90.4043 52.7365C90.4043 53.3584 90.9075 53.8616 91.5294 53.8616Z" fill="#A52626"/>
<path d="M75.9513 71.008C78.94 71.008 81.3727 73.4406 81.3727 76.4315C81.3727 77.0534 81.8759 77.5566 82.4978 77.5566C83.1197 77.5566 83.6229 77.0534 83.6229 76.4315C83.6229 73.4406 86.0556 71.008 89.0465 71.008C89.6684 71.008 90.1716 70.5047 90.1716 69.8828C90.1716 69.2609 89.6684 68.7577 89.0465 68.7577C86.0556 68.7577 83.6229 66.325 83.6229 63.3341C83.6229 62.7122 83.1197 62.209 82.4978 62.209C81.8759 62.209 81.3727 62.7122 81.3727 63.3341C81.3727 66.325 78.94 68.7577 75.9513 68.7577C75.3294 68.7577 74.8262 69.2609 74.8262 69.8828C74.8262 70.5047 75.3294 71.008 75.9513 71.008ZM82.4978 67.3315C83.1351 68.3709 84.0097 69.2455 85.0492 69.8828C84.0097 70.5201 83.1351 71.3947 82.4978 72.4342C81.8627 71.3947 80.9859 70.5201 79.9465 69.8828C80.9859 69.2455 81.8627 68.3709 82.4978 67.3315Z" fill="#A52626"/>
<path d="M88.1798 65.367C88.883 65.367 89.4544 65.9384 89.4544 66.6416C89.4544 67.2635 89.9576 67.7668 90.5795 67.7668C91.2015 67.7668 91.7047 67.2635 91.7047 66.6416C91.7047 65.9384 92.2783 65.367 92.9815 65.3648C92.9837 65.3648 92.9837 65.3648 92.9859 65.3648C92.9881 65.3648 92.9881 65.3648 92.9903 65.3648C92.9925 65.3648 92.9925 65.3648 92.9925 65.3648C92.9947 65.3648 92.9947 65.3648 92.9947 65.3648H92.9968C92.9985 65.3648 92.9996 65.3648 93.0012 65.3648C93.0034 65.3648 93.0034 65.3648 93.0034 65.3648H93.0056C93.0073 65.3648 93.0084 65.3648 93.01 65.3648C93.0122 65.3648 93.0122 65.3648 93.0144 65.3648H93.0166C93.621 65.3451 94.1044 64.8484 94.1044 64.2419C94.1044 64.2397 94.1044 64.2397 94.1044 64.2397C94.1044 63.6178 93.6012 63.1146 92.9793 63.1146C92.2761 63.1146 91.7047 62.5432 91.7047 61.84C91.7047 61.2181 91.2015 60.7148 90.5795 60.7148C89.9576 60.7148 89.4544 61.2181 89.4544 61.84C89.4544 62.5212 88.916 63.0816 88.2414 63.1146C88.2216 63.1146 88.2018 63.1146 88.182 63.1146V63.1168C88.1798 63.1168 88.1798 63.1168 88.1776 63.1168C87.5579 63.1168 87.0547 63.6222 87.0547 64.2419C87.0547 64.8638 87.5579 65.367 88.1798 65.367Z" fill="#A52626"/>
</svg>
