<svg width="150" height="150" viewBox="0 0 150 150" fill="none" xmlns="http://www.w3.org/2000/svg">
<circle cx="75" cy="75" r="75" fill="#BF7C16" fill-opacity="0.1"/>
<path d="M73.8299 70.999H66.7513C66.2468 70.999 65.8379 71.408 65.8379 71.9124V91.7781C65.8379 92.2826 66.2468 92.6915 66.7513 92.6915H73.8299C74.3343 92.6915 74.7432 92.2826 74.7432 91.7781V71.9124C74.7432 71.408 74.3343 70.999 73.8299 70.999Z" fill="#9B6717"/>
<path d="M60.5857 81.6172H53.5071C53.0027 81.6172 52.5938 82.0261 52.5938 82.5306V91.7784C52.5938 92.2828 53.0027 92.6918 53.5071 92.6918H60.5857C61.0902 92.6918 61.4991 92.2828 61.4991 91.7784V82.5306C61.4991 82.0261 61.0902 81.6172 60.5857 81.6172Z" fill="#9B6717"/>
<path d="M87.074 77.6211H79.9954C79.491 77.6211 79.082 78.03 79.082 78.5345V91.7783C79.082 92.2827 79.491 92.6917 79.9954 92.6917H87.074C87.5784 92.6917 87.9874 92.2827 87.9874 91.7783V78.5345C87.9874 78.03 87.5784 77.6211 87.074 77.6211Z" fill="#9B6717"/>
<path d="M97.7203 53.0005C96.8615 52.9999 96.0169 53.2197 95.2673 53.6389C94.5177 54.0581 93.8882 54.6626 93.439 55.3946C92.9898 56.1266 92.736 56.9616 92.7018 57.8198C92.6676 58.678 92.8542 59.5305 93.2437 60.296L88.386 64.3674C87.8962 63.7873 87.2811 63.326 86.587 63.0183C85.8929 62.7106 85.138 62.5645 84.3792 62.591C83.6204 62.6176 82.8776 62.8161 82.2067 63.1715C81.5358 63.527 80.9544 64.0301 80.5063 64.643L74.9576 61.067C74.9638 60.9658 74.9677 60.8641 74.9677 60.7615C74.9683 59.9994 74.7955 59.2472 74.4624 58.5618C74.1292 57.8764 73.6445 57.2758 73.0449 56.8055C72.4453 56.3352 71.7465 56.0075 71.0015 55.8472C70.2565 55.6869 69.4848 55.6982 68.7448 55.8803C68.0048 56.0624 67.316 56.4105 66.7304 56.8983C66.1449 57.386 65.678 58.0005 65.3651 58.6954C65.0523 59.3903 64.9016 60.1472 64.9246 60.909C64.9476 61.6707 65.1435 62.4172 65.4977 63.0919L59.7478 68.7124C58.6269 68.1512 57.3368 68.0288 56.1303 68.3693C54.9238 68.7097 53.8879 69.4885 53.2258 70.5529C52.5636 71.6173 52.3228 72.8907 52.5505 74.1234C52.7783 75.3562 53.4583 76.4594 54.4571 77.2169C55.4559 77.9744 56.7017 78.3316 57.9502 78.2184C59.1986 78.1052 60.3599 77.5299 61.2062 76.6051C62.0526 75.6804 62.5231 74.4729 62.5255 73.2193C62.5279 71.9657 62.0621 70.7564 61.2193 69.8284L66.6351 64.5346C67.2174 65.0467 67.9105 65.4168 68.6599 65.616C69.4094 65.8151 70.1948 65.8378 70.9545 65.6822C71.7142 65.5267 72.4274 65.1971 73.0383 64.7195C73.6492 64.2418 74.141 63.6291 74.4752 62.9293L79.7072 66.301C79.5014 67.0596 79.4765 67.8559 79.6345 68.6259C79.7925 69.3959 80.129 70.118 80.6168 70.7343C81.1047 71.3506 81.7304 71.8438 82.4436 72.1742C83.1568 72.5047 83.9375 72.6632 84.7231 72.6369C85.5087 72.6107 86.2771 72.4005 86.9667 72.0233C87.6563 71.646 88.2477 71.1122 88.6934 70.4647C89.1391 69.8173 89.4266 69.0743 89.5329 68.2955C89.6392 67.5167 89.5612 66.7239 89.3053 65.9807L94.3556 61.748C94.9604 62.2944 95.6892 62.6854 96.4789 62.8871C97.2687 63.0889 98.0956 63.0954 98.8884 62.906C99.6812 62.7167 100.416 62.3372 101.029 61.8003C101.643 61.2635 102.116 60.5854 102.409 59.8246C102.701 59.0639 102.804 58.2433 102.709 57.4338C102.614 56.6243 102.323 55.8502 101.861 55.1784C101.4 54.5065 100.781 53.9571 100.06 53.5776C99.3388 53.1981 98.5359 52.9998 97.7208 53L97.7203 53.0005Z" fill="#9B6717"/>
<path d="M92.4132 95.2038H48.8267V58.4007C48.8267 58.1584 48.7305 57.9261 48.5592 57.7548C48.3879 57.5835 48.1556 57.4873 47.9134 57.4873C47.6711 57.4873 47.4388 57.5835 47.2675 57.7548C47.0962 57.9261 47 58.1584 47 58.4007V96.0771C47 96.5815 47.3821 97.0305 47.8865 97.0305H92.4132C92.6555 97.0305 92.8878 96.9343 93.0591 96.763C93.2304 96.5917 93.3266 96.3594 93.3266 96.1172C93.3266 95.8749 93.2304 95.6426 93.0591 95.4713C92.8878 95.3 92.6555 95.2038 92.4132 95.2038Z" fill="#9B6717"/>
</svg>
