<svg width="150" height="150" viewBox="0 0 150 150" fill="none" xmlns="http://www.w3.org/2000/svg">
<circle cx="75" cy="75" r="75" fill="#9314A8" fill-opacity="0.1"/>
<path d="M84.5497 66.1621H65.8658C64.4044 66.1621 63.0028 66.7427 61.9694 67.776C60.936 68.8094 60.3555 70.211 60.3555 71.6724V80.7394C60.3555 82.2008 60.936 83.6024 61.9694 84.6358C63.0028 85.6691 64.4044 86.2497 65.8658 86.2497H84.5497C86.0112 86.2497 87.4127 85.6691 88.4461 84.6358C89.4795 83.6024 90.0601 82.2008 90.0601 80.7394V71.6724C90.0601 70.211 89.4795 68.8094 88.4461 67.776C87.4127 66.7427 86.0112 66.1621 84.5497 66.1621ZM87.5467 80.7394C87.5442 81.5334 87.2277 82.2943 86.6662 82.8558C86.1047 83.4173 85.3438 83.7339 84.5497 83.7364H65.8658C65.0717 83.7339 64.3109 83.4173 63.7494 82.8558C63.1878 82.2943 62.8713 81.5334 62.8688 80.7394V71.6724C62.8682 71.2716 62.9489 70.8747 63.1059 70.5059L74.4206 77.7329C74.657 77.8841 74.9318 77.9644 75.2125 77.9644C75.4932 77.9644 75.768 77.8841 76.0044 77.7329L87.3096 70.4964C87.4679 70.8682 87.5486 71.2684 87.5467 71.6724V80.7394Z" fill="#C231DA"/>
<path d="M48.4157 67.5466C46.2088 74.1896 46.5931 81.421 49.4915 87.7927C52.3898 94.1644 57.5883 99.2059 64.0458 101.908C70.5033 104.609 77.7431 104.772 84.3153 102.362C90.8876 99.9531 96.3069 95.1498 99.4882 88.9145C101.199 85.5321 102.205 81.8378 102.447 78.0551H98.4449C98.1457 82.0773 96.829 85.9574 94.6186 89.331C92.4081 92.7047 89.3765 95.4611 85.8083 97.3414C82.2401 99.2218 78.2526 100.164 74.2201 100.08C70.1877 99.9967 66.2428 98.8893 62.7558 96.8623C59.8876 95.2223 57.409 92.9799 55.4909 90.2898C52.0261 85.4973 50.4699 79.5865 51.1257 73.7093C51.7814 67.832 54.6021 62.4095 59.038 58.4986C60.7866 56.9653 62.7441 55.688 64.8518 54.705L67.0142 53.6996V56.6018C67.0145 56.7719 67.0605 56.9388 67.1475 57.085C67.2345 57.2312 67.3591 57.3514 67.5085 57.4328C67.6578 57.5143 67.8263 57.5541 67.9963 57.548C68.1663 57.542 68.3316 57.4903 68.4748 57.3985L75.5785 52.8081C75.7056 52.721 75.8096 52.6042 75.8815 52.4679C75.9533 52.3316 75.9909 52.1798 75.9909 52.0257C75.9909 51.8715 75.9533 51.7198 75.8815 51.5834C75.8096 51.4471 75.7056 51.3303 75.5785 51.2432L68.4938 46.1692C68.3516 46.0705 68.1852 46.0127 68.0125 46.0019C67.8398 45.991 67.6674 46.0277 67.5141 46.1078C67.3607 46.1879 67.2322 46.3084 67.1424 46.4563C67.0526 46.6042 67.005 46.7738 67.0047 46.9469V49.6499L66.4641 49.8301C62.2959 51.1963 58.499 53.5055 55.3686 56.5783C52.2383 59.651 49.859 63.4044 48.4157 67.5466Z" fill="#C231DA"/>
</svg>
